<svg width="24" height="24" viewBox="0 0 24 24" fill="none" xmlns="http://www.w3.org/2000/svg">
<rect width="24" height="24" fill="url(#paint0_radial_24859_65757)"/>
<path d="M0 15L4.5 10.5V19.5L0 24V15Z" fill="#D90000"/>
<path d="M0 15L4.5 10.5V19.5L0 24V15Z" fill="url(#paint1_linear_24859_65757)" fill-opacity="0.25"/>
<path d="M0 23.25L4.5 18.75V19.5L0 24V23.25Z" fill="url(#paint2_linear_24859_65757)" fill-opacity="0.5"/>
<g opacity="0.1">
<path d="M0 21.75L4.5 17.25V18L0 22.5V21.75Z" fill="black"/>
<path d="M0 20.25L4.5 15.75V16.5L0 21V20.25Z" fill="black"/>
<path d="M0 18.75L4.5 14.25V15L0 19.5V18.75Z" fill="black"/>
<path d="M0 17.25L4.5 12.75V13.5L0 18V17.25Z" fill="black"/>
<path d="M0 15.75L4.5 11.25V12L0 16.5V15.75Z" fill="black"/>
</g>
<path d="M1.5 16.5L4.5 19.5V15L1.5 12V16.5Z" fill="url(#paint3_linear_24859_65757)"/>
<g opacity="0.2">
<path d="M4.5 18L1.5 15V15.75L4.5 18.75V18Z" fill="black"/>
<path d="M4.5 16.5L1.5 13.5V14.25L4.5 17.25V16.5Z" fill="black"/>
<path d="M1.5 12L4.5 15V15.75L1.5 12.75V12Z" fill="black"/>
<path d="M4.5 13.5L1.5 10.5V11.25L4.5 14.25V13.5Z" fill="black"/>
<path d="M1.5 9L4.5 12V12.75L1.5 9.75V9Z" fill="black"/>
</g>
<path d="M24 15L19.5 10.5V19.5L24 24V15Z" fill="#D90000"/>
<path d="M24 15L19.5 10.5V19.5L24 24V15Z" fill="url(#paint4_linear_24859_65757)" fill-opacity="0.25"/>
<path d="M24 23.25L19.5 18.75V19.5L24 24V23.25Z" fill="url(#paint5_linear_24859_65757)" fill-opacity="0.5"/>
<g opacity="0.1">
<path d="M24 21.75L19.5 17.25V18L24 22.5V21.75Z" fill="black"/>
<path d="M24 20.25L19.5 15.75V16.5L24 21V20.25Z" fill="black"/>
<path d="M24 18.75L19.5 14.25V15L24 19.5V18.75Z" fill="black"/>
<path d="M24 17.25L19.5 12.75V13.5L24 18V17.25Z" fill="black"/>
<path d="M24 15.75L19.5 11.25V12L24 16.5V15.75Z" fill="black"/>
</g>
<path d="M22.5 16.5L19.5 19.5V15L22.5 12V16.5Z" fill="url(#paint6_linear_24859_65757)"/>
<g opacity="0.2">
<path d="M19.5 18L22.5 15V15.75L19.5 18.75V18Z" fill="black"/>
<path d="M19.5 16.5L22.5 13.5V14.25L19.5 17.25V16.5Z" fill="black"/>
<path d="M22.5 12L19.5 15V15.75L22.5 12.75V12Z" fill="black"/>
<path d="M19.5 13.5L22.5 10.5V11.25L19.5 14.25V13.5Z" fill="black"/>
<path d="M22.5 9L19.5 12V12.75L22.5 9.75V9Z" fill="black"/>
</g>
<g opacity="0.05">
<path d="M24 21.75L19.5 17.25V18L24 22.5V21.75Z" fill="black"/>
<path d="M24 20.25L19.5 15.75V16.5L24 21V20.25Z" fill="black"/>
<path d="M24 18.75L19.5 14.25V15L24 19.5V18.75Z" fill="black"/>
<path d="M24 17.25L19.5 12.75V13.5L24 18V17.25Z" fill="black"/>
<path d="M24 15.75L19.5 11.25V12L24 16.5V15.75Z" fill="black"/>
</g>
<rect opacity="0.5" x="21" y="15" width="4.5" height="4.5" transform="rotate(180 21 15)" fill="black"/>
<path d="M1.5 7.5H22.5V16.5H1.5V7.5Z" fill="url(#paint7_radial_24859_65757)"/>
<path d="M1.5 7.5H22.5V16.5H1.5V7.5Z" fill="url(#paint8_linear_24859_65757)" fill-opacity="0.25"/>
<path d="M1.5 15.75H22.5V16.5H1.5V15.75Z" fill="url(#paint9_linear_24859_65757)" fill-opacity="0.25"/>
<path d="M1.5 7.5H22.5V8.25H1.5V7.5Z" fill="url(#paint10_linear_24859_65757)" fill-opacity="0.25"/>
<g opacity="0.05">
<mask id="mask0_24859_65757" style="mask-type:alpha" maskUnits="userSpaceOnUse" x="1" y="7" width="22" height="10">
<path d="M1.5 16.5H22.5V7.5H1.5V16.5Z" fill="url(#paint11_radial_24859_65757)"/>
<path d="M1.5 16.5H22.5V7.5H1.5V16.5Z" fill="url(#paint12_linear_24859_65757)" fill-opacity="0.25"/>
</mask>
<g mask="url(#mask0_24859_65757)">
<path d="M12 3.75L1.5 14.25V13.5L12 3V3.75Z" fill="black"/>
<path d="M12 2.25L1.5 12.75V12L12 1.5V2.25Z" fill="black"/>
<path d="M12 0.75L1.5 11.25V10.5L12 0V0.75Z" fill="black"/>
<path d="M12 -0.75L1.5 9.75V9L12 -1.5V-0.75Z" fill="black"/>
<path d="M12 -2.25L1.5 8.25V7.5L12 -3V-2.25Z" fill="black"/>
<path d="M12 5.25L1.5 15.75V15L12 4.5V5.25Z" fill="black"/>
<path d="M12 6.75L1.5 17.25V16.5L12 6V6.75Z" fill="black"/>
<path d="M12 8.25L1.5 18.75V18L12 7.5V8.25Z" fill="black"/>
<path d="M12 9.75L1.5 20.25V19.5L12 9V9.75Z" fill="black"/>
<path d="M12 11.25L1.5 21.75V21L12 10.5V11.25Z" fill="black"/>
<path d="M12 12.75L1.5 23.25V22.5L12 12V12.75Z" fill="black"/>
<path d="M12 14.25L1.5 24.75V24L12 13.5V14.25Z" fill="black"/>
<path d="M12 15.75L1.5 26.25V25.5L12 15V15.75Z" fill="black"/>
<path d="M12 3.75L22.5 14.25V13.5L12 3V3.75Z" fill="black"/>
<path d="M12 2.25L22.5 12.75V12L12 1.5V2.25Z" fill="black"/>
<path d="M12 0.75L22.5 11.25V10.5L12 0V0.75Z" fill="black"/>
<path d="M12 -0.75L22.5 9.75V9L12 -1.5V-0.75Z" fill="black"/>
<path d="M12 -2.25L22.5 8.25V7.5L12 -3V-2.25Z" fill="black"/>
<path d="M12 5.25L22.5 15.75V15L12 4.5V5.25Z" fill="black"/>
<path d="M12 6.75L22.5 17.25V16.5L12 6V6.75Z" fill="black"/>
<path d="M12 8.25L22.5 18.75V18L12 7.5V8.25Z" fill="black"/>
<path d="M12 9.75L22.5 20.25V19.5L12 9V9.75Z" fill="black"/>
<path d="M12 11.25L22.5 21.75V21L12 10.5V11.25Z" fill="black"/>
<path d="M12 12.75L22.5 23.25V22.5L12 12V12.75Z" fill="black"/>
<path d="M12 14.25L22.5 24.75V24L12 13.5V14.25Z" fill="black"/>
<path d="M12 15.75L22.5 26.25V25.5L12 15V15.75Z" fill="black"/>
</g>
</g>
<path d="M5.99951 13.5H17.9995V16.5H5.99951V13.5Z" fill="url(#paint13_radial_24859_65757)" fill-opacity="0.5"/>
<path fill-rule="evenodd" clip-rule="evenodd" d="M6.29665 11.3466C6.34231 11.5635 6.53367 11.7188 6.75534 11.7188H17.2447C17.4663 11.7188 17.6577 11.5635 17.7034 11.3466L19.5 2.8125L15.75 5.625L12 0L8.25 5.625L4.5 2.8125L6.29665 11.3466Z" fill="url(#paint14_radial_24859_65757)"/>
<path d="M6.375 12.5C6.375 12.3274 6.51491 12.1875 6.6875 12.1875H17.3125C17.4851 12.1875 17.625 12.3274 17.625 12.5V13.75C17.625 13.9226 17.4851 14.0625 17.3125 14.0625H6.6875C6.51491 14.0625 6.375 13.9226 6.375 13.75V12.5Z" fill="url(#paint15_radial_24859_65757)"/>
<path d="M12.0001 3.59759L12.0006 0L8.25 5.625V7.5H9.7875L11.6879 4.63335C11.8914 4.32627 12 3.96602 12.0001 3.59759Z" fill="url(#paint16_radial_24859_65757)"/>
<path opacity="0.5" d="M8.25 11.7188H15.75V5.625H8.25V11.7188Z" fill="url(#paint17_radial_24859_65757)"/>
<path d="M10.125 7.5L12 10.3125L13.875 7.5L12 4.6875L10.125 7.5Z" fill="#FF3333"/>
<path opacity="0.25" fill-rule="evenodd" clip-rule="evenodd" d="M12 10.5938C11.906 10.5938 11.8181 10.5468 11.766 10.4685L9.89099 7.65601C9.828 7.56154 9.828 7.43846 9.89099 7.34399L11.766 4.53149C11.8181 4.45325 11.906 4.40625 12 4.40625C12.094 4.40625 12.1819 4.45325 12.234 4.53149L14.109 7.34399C14.172 7.43846 14.172 7.56154 14.109 7.65601L12.234 10.4685C12.1819 10.5468 12.094 10.5938 12 10.5938ZM12 10.3125L13.875 7.5L12 4.6875L10.125 7.5L12 10.3125Z" fill="#FF3333"/>
<path opacity="0.5" d="M12 4.6875L10.125 7.5H12V4.6875Z" fill="white"/>
<path opacity="0.25" d="M12 10.3125L13.875 7.5L12 7.5L12 10.3125Z" fill="black"/>
<path d="M12 14.0625V12.1875H6.375V14.0625H12Z" fill="url(#paint18_linear_24859_65757)"/>
<path d="M17.625 14.0625V12.1875H12V14.0625H17.625Z" fill="url(#paint19_linear_24859_65757)"/>
<path d="M12 0L8.25 5.625L12 0.845051L15.75 5.625L12 0Z" fill="white" fill-opacity="0.4"/>
<path d="M18.5625 3.525L17.2798 11.3268C17.2334 11.5549 17.0328 11.7188 16.8 11.7188H17.2447C17.4663 11.7188 17.6577 11.5635 17.7034 11.3466L19.5 2.8125L18.5625 3.525Z" fill="white" fill-opacity="0.4"/>
<path d="M5.4375 3.525L6.7202 11.3268C6.76664 11.5549 6.96723 11.7188 7.2 11.7188H6.75534C6.53367 11.7188 6.34231 11.5635 6.29665 11.3466L4.5 2.8125L5.4375 3.525Z" fill="white" fill-opacity="0.4"/>
<path d="M6.6875 12.1875C6.51491 12.1875 6.375 12.3274 6.375 12.5V13.75C6.375 13.9226 6.51491 14.0625 6.6875 14.0625H6.84375V12.6563C6.84375 12.5009 6.96967 12.375 7.125 12.375H16.875C17.0303 12.375 17.1562 12.5009 17.1562 12.6563V14.0625H17.3125C17.4851 14.0625 17.625 13.9226 17.625 13.75V12.5C17.625 12.3274 17.4851 12.1875 17.3125 12.1875H6.6875Z" fill="white" fill-opacity="0.4"/>
<defs>
<radialGradient id="paint0_radial_24859_65757" cx="0" cy="0" r="1" gradientUnits="userSpaceOnUse" gradientTransform="translate(12 12) scale(12)">
<stop stop-color="#FF2626" stop-opacity="0.5"/>
<stop offset="1" stop-color="#FF2626" stop-opacity="0"/>
</radialGradient>
<linearGradient id="paint1_linear_24859_65757" x1="0" y1="17.25" x2="4.5" y2="17.25" gradientUnits="userSpaceOnUse">
<stop stop-color="white"/>
<stop offset="0.5" stop-color="white" stop-opacity="0"/>
<stop offset="1" stop-color="white" stop-opacity="0"/>
</linearGradient>
<linearGradient id="paint2_linear_24859_65757" x1="-3" y1="17.25" x2="4.5" y2="17.25" gradientUnits="userSpaceOnUse">
<stop stop-color="white"/>
<stop offset="1" stop-color="white" stop-opacity="0"/>
</linearGradient>
<linearGradient id="paint3_linear_24859_65757" x1="0" y1="15" x2="4.5" y2="15" gradientUnits="userSpaceOnUse">
<stop stop-color="#400000"/>
<stop offset="1" stop-color="#800000"/>
</linearGradient>
<linearGradient id="paint4_linear_24859_65757" x1="24" y1="17.25" x2="19.5" y2="17.25" gradientUnits="userSpaceOnUse">
<stop stop-color="white"/>
<stop offset="0.5" stop-color="white" stop-opacity="0"/>
<stop offset="1" stop-color="white" stop-opacity="0"/>
</linearGradient>
<linearGradient id="paint5_linear_24859_65757" x1="27" y1="17.25" x2="19.5" y2="17.25" gradientUnits="userSpaceOnUse">
<stop stop-color="white"/>
<stop offset="1" stop-color="white" stop-opacity="0"/>
</linearGradient>
<linearGradient id="paint6_linear_24859_65757" x1="24" y1="15" x2="19.5" y2="15" gradientUnits="userSpaceOnUse">
<stop stop-color="#400000"/>
<stop offset="1" stop-color="#800000"/>
</linearGradient>
<radialGradient id="paint7_radial_24859_65757" cx="0" cy="0" r="1" gradientUnits="userSpaceOnUse" gradientTransform="translate(12 7.5) rotate(90) scale(9.64286 18.3627)">
<stop stop-color="#FFCC00"/>
<stop offset="0.5" stop-color="#FF2626"/>
<stop offset="1" stop-color="#D90000"/>
</radialGradient>
<linearGradient id="paint8_linear_24859_65757" x1="1.5" y1="8.14286" x2="22.5" y2="8.14286" gradientUnits="userSpaceOnUse">
<stop stop-color="white"/>
<stop offset="0.25" stop-color="white" stop-opacity="0"/>
<stop offset="0.5" stop-color="#FFCC00" stop-opacity="0"/>
<stop offset="0.75" stop-color="white" stop-opacity="0"/>
<stop offset="1" stop-color="white"/>
</linearGradient>
<linearGradient id="paint9_linear_24859_65757" x1="1.5" y1="6.75" x2="22.5" y2="6.75" gradientUnits="userSpaceOnUse">
<stop stop-color="white"/>
<stop offset="0.5" stop-color="white" stop-opacity="0.5"/>
<stop offset="1" stop-color="white"/>
</linearGradient>
<linearGradient id="paint10_linear_24859_65757" x1="1.5" y1="-1.5" x2="22.5" y2="-1.5" gradientUnits="userSpaceOnUse">
<stop stop-color="white"/>
<stop offset="0.5" stop-color="white" stop-opacity="0.5"/>
<stop offset="1" stop-color="white"/>
</linearGradient>
<radialGradient id="paint11_radial_24859_65757" cx="0" cy="0" r="1" gradientUnits="userSpaceOnUse" gradientTransform="translate(12 16.5) rotate(-90) scale(11.25 18.3627)">
<stop stop-color="#FFCC00"/>
<stop offset="0.5" stop-color="#FF2626"/>
<stop offset="1" stop-color="#D90000"/>
</radialGradient>
<linearGradient id="paint12_linear_24859_65757" x1="1.5" y1="15.75" x2="22.5" y2="15.75" gradientUnits="userSpaceOnUse">
<stop stop-color="white"/>
<stop offset="0.25" stop-color="white" stop-opacity="0"/>
<stop offset="0.5" stop-color="#FFCC00" stop-opacity="0"/>
<stop offset="0.75" stop-color="white" stop-opacity="0"/>
<stop offset="1" stop-color="white"/>
</linearGradient>
<radialGradient id="paint13_radial_24859_65757" cx="0" cy="0" r="1" gradientUnits="userSpaceOnUse" gradientTransform="translate(11.9995 13.5) rotate(90) scale(3 6)">
<stop/>
<stop offset="1" stop-opacity="0"/>
</radialGradient>
<radialGradient id="paint14_radial_24859_65757" cx="0" cy="0" r="1" gradientUnits="userSpaceOnUse" gradientTransform="translate(12) rotate(90) scale(14.0625)">
<stop stop-color="white"/>
<stop offset="0.5" stop-color="#FFCC00"/>
<stop offset="1" stop-color="#FF6600"/>
</radialGradient>
<radialGradient id="paint15_radial_24859_65757" cx="0" cy="0" r="1" gradientUnits="userSpaceOnUse" gradientTransform="translate(12) rotate(90) scale(14.0625)">
<stop stop-color="white"/>
<stop offset="0.5" stop-color="#FFCC00"/>
<stop offset="1" stop-color="#FF6600"/>
</radialGradient>
<radialGradient id="paint16_radial_24859_65757" cx="0" cy="0" r="1" gradientUnits="userSpaceOnUse" gradientTransform="translate(12.0006 4) rotate(90) scale(3.4)">
<stop stop-color="white"/>
<stop offset="1" stop-color="white" stop-opacity="0"/>
</radialGradient>
<radialGradient id="paint17_radial_24859_65757" cx="0" cy="0" r="1" gradientUnits="userSpaceOnUse" gradientTransform="translate(12 11.7188) rotate(-180) scale(3.75 6.11875)">
<stop stop-color="#FF264A"/>
<stop offset="1" stop-color="#FF002A" stop-opacity="0"/>
</radialGradient>
<linearGradient id="paint18_linear_24859_65757" x1="12" y1="13.125" x2="6.375" y2="13.125" gradientUnits="userSpaceOnUse">
<stop stop-color="#FFCC00" stop-opacity="0"/>
<stop offset="0.5" stop-color="#FFCC00"/>
<stop offset="1" stop-color="white" stop-opacity="0"/>
</linearGradient>
<linearGradient id="paint19_linear_24859_65757" x1="17.625" y1="13.125" x2="12" y2="13.125" gradientUnits="userSpaceOnUse">
<stop stop-color="white" stop-opacity="0"/>
<stop offset="0.5" stop-color="#FFCC00"/>
<stop offset="1" stop-color="#FFCC00" stop-opacity="0"/>
</linearGradient>
</defs>
</svg>
